<?xml version="1.0" standalone="no"?><!DOCTYPE svg PUBLIC "-//W3C//DTD SVG 1.1//EN" "http://www.w3.org/Graphics/SVG/1.1/DTD/svg11.dtd"><svg class="icon" style="" viewBox="0 0 1024 1024" version="1.1" xmlns="http://www.w3.org/2000/svg" p-id="1796" xmlns:xlink="http://www.w3.org/1999/xlink" width="32" height="32"><defs><style type="text/css"><![CDATA[

]]></style></defs><path d="M543.261644 194.737028c-8.260053-8.264045-19.093138-12.393073-29.926222-12.390079-1.437225 0-2.87445 0.074855-4.304689 0.219576-0.173665 0.019961-0.342339 0.042917-0.516004 0.063877-0.493048 0.054894-0.988092 0.112782-1.481141 0.187638-0.340343 0.049904-0.682682 0.112782-1.021028 0.169672-0.317387 0.055892-0.637769 0.107792-0.95815 0.171669-0.433164 0.085834-0.863333 0.184644-1.291507 0.283453-0.224566 0.0519-0.447137 0.099807-0.668709 0.155699-0.486062 0.118771-0.966135 0.251514-1.44521 0.389248-0.167676 0.046909-0.338347 0.093819-0.506023 0.145719a39.044618 39.044618 0 0 0-1.520065 0.48706c-0.138732 0.047908-0.277464 0.092821-0.417195 0.13973a43.695638 43.695638 0 0 0-1.556993 0.588863c-0.119769 0.046909-0.233549 0.089827-0.349326 0.13973-0.534967 0.216582-1.064944 0.448135-1.583942 0.687673l-0.291437 0.129749c-0.549938 0.258501-1.093888 0.528979-1.63185 0.809437l-0.197618 0.100806c-0.583873 0.309403-1.159761 0.630782-1.729661 0.966134a42.512922 42.512922 0 0 0-9.142349 7.240022L119.237293 558.906938c-16.521103 16.521103-16.521103 43.30639 0 59.828492 16.520105 16.521103 43.356294 16.521103 59.877397 0L471.069024 326.826009v654.80579c0 23.36489 18.896517 42.372194 42.258413 42.372193h-0.159692c23.363892 0 42.144633-19.007303 42.144633-42.372193V326.719215l292.155945 291.803625c16.520105 16.519107 43.377253 16.409319 59.896361-0.214586h0.039923c16.522101-16.624903 16.534078-43.092802 0.010978-59.620892L543.261644 194.737028zM986.506887 58.534989c0-23.264085-18.863581-42.121677-42.128664-42.121678H76.457886c-23.264085 0-42.122675 18.85859-42.122676 42.121678 0 23.263087 18.85859 42.121677 42.122676 42.121677h867.919339c23.265083 0 42.128664-18.85859 42.128664-42.121677z" fill="#bbb" p-id="1797"></path></svg>