<?xml version="1.0" standalone="no"?><!DOCTYPE svg PUBLIC "-//W3C//DTD SVG 1.1//EN" "http://www.w3.org/Graphics/SVG/1.1/DTD/svg11.dtd"><svg class="icon" style="" viewBox="0 0 1024 1024" version="1.1" xmlns="http://www.w3.org/2000/svg" p-id="1412" xmlns:xlink="http://www.w3.org/1999/xlink" width="32" height="32"><defs><style type="text/css"><![CDATA[

]]></style></defs><path d="M720.531384 70.744227l46.177716 46.179762c12.767791 12.765745 12.767791 33.512255 0 46.280046L350.895789 579.016323c-12.765745 12.767791-33.512255 12.767791-46.280046 0l-46.177716-46.177716c-12.767791-12.767791-12.767791-33.512255 0-46.280046L674.251338 70.744227C687.017082 57.978483 707.763592 57.978483 720.531384 70.744227L720.531384 70.744227z" p-id="1413" fill="#ffffff"></path><path d="M350.895789 440.376753l415.813311 415.815357c12.765745 12.765745 12.765745 33.510208 0 46.278l-46.177716 46.179762c-12.767791 12.765745-33.514301 12.765745-46.280046 0L258.438027 532.834514c-12.767791-12.765745-12.767791-33.510208 0-46.278l46.177716-46.179762C317.383534 427.609984 338.129021 427.609984 350.895789 440.376753L350.895789 440.376753z" p-id="1414" fill="#ffffff"></path></svg>