<?xml version="1.0" standalone="no"?><!DOCTYPE svg PUBLIC "-//W3C//DTD SVG 1.1//EN" "http://www.w3.org/Graphics/SVG/1.1/DTD/svg11.dtd"><svg class="icon" style="" viewBox="0 0 1025 1024" version="1.1" xmlns="http://www.w3.org/2000/svg" p-id="6896" xmlns:xlink="http://www.w3.org/1999/xlink" width="16.015625" height="16"><defs><style type="text/css"><![CDATA[

]]></style></defs><path d="M400.222841 863.136288l78.675455-501.007382c0.528053-2.793238-1.567979-4.764242-4.614211-4.487713l-109.287809 11.089109c-2.931502 0.241227-3.483089-0.861947-1.06346-2.504941l293.772397-204.500584c2.390211-1.707714 4.165586-0.804582 3.894941 2.062201l-55.445545 699.349311-205.931769 0 0 0" p-id="6897" fill="#ffffff"></path><path d="M955.768223 921.598353c0 18.852809-15.27823 34.135157-34.135157 34.135157l-819.227447 0c-18.851044 0-34.135157-15.282348-34.135157-34.135157l0-819.197882c0-18.852515 15.284113-34.135157 34.135157-34.135157l819.227447 0c18.856927 0 34.141041 15.282642 34.141041 34.135157l0 819.197882-0.005884 0zm34.135157-921.598941l-955.768223 0C15.284113-0.000588 0 15.283525 0 34.134569L0 989.863078C0 1008.715887 15.284113 1023.998235 34.135157 1023.998235l955.768223 0c18.852515 0 34.135157-15.282348 34.135157-34.135157l0-955.728509c0-18.851044-15.282642-34.135157-34.135157-34.135157l0 0" p-id="6898" fill="#ffffff"></path></svg>